<?xml version="1.0" encoding="UTF-8"?>
<svg xmlns="http://www.w3.org/2000/svg" xmlns:xlink="http://www.w3.org/1999/xlink" width="80px" height="54px" viewBox="0 0 80 54" version="1.1">
<g id="surface1">
<path style=" stroke:none;fill-rule:nonzero;fill:rgb(100%,100%,100%);fill-opacity:1;" d="M 39.28125 11.25 C 39.199219 11.542969 39.121094 11.785156 39.09375 11.785156 C 39.066406 11.785156 37.171875 12.507812 34.933594 13.394531 C 32.667969 14.277344 30.640625 14.945312 30.453125 14.867188 C 30.238281 14.785156 29.785156 14.8125 29.414062 14.894531 C 28.828125 15.054688 28.773438 15.1875 28.878906 15.910156 C 28.988281 16.554688 28.585938 17.707031 27.226562 20.730469 C 25.574219 24.480469 25.414062 24.75 24.585938 24.964844 C 24.132812 25.097656 23.519531 25.5 23.28125 25.875 C 22.878906 26.519531 22.878906 26.652344 23.226562 27.292969 C 23.441406 27.667969 24.027344 28.125 24.535156 28.285156 C 25.414062 28.582031 25.574219 28.847656 27.253906 32.570312 C 28.398438 35.117188 29.039062 36.855469 28.988281 37.367188 C 28.933594 38.144531 28.960938 38.167969 30.132812 38.195312 C 31.011719 38.195312 32.1875 38.625 34.667969 39.832031 C 37.574219 41.222656 38.054688 41.542969 38.398438 42.347656 C 38.667969 42.9375 39.011719 43.285156 39.414062 43.339844 C 40.1875 43.445312 41.066406 42.695312 41.066406 41.945312 C 41.066406 41.464844 41.679688 41.144531 44.960938 39.855469 C 48.613281 38.4375 48.90625 38.355469 49.492188 38.730469 C 50.375 39.347656 51.707031 39.105469 52.347656 38.25 C 52.878906 37.554688 52.878906 37.527344 52.347656 36.507812 L 51.8125 35.492188 L 53.226562 32.144531 C 54.691406 28.742188 54.828125 28.394531 54.480469 28.394531 C 54.347656 28.394531 53.601562 29.972656 52.800781 31.875 C 50.90625 36.375 50.667969 36.402344 49.414062 32.4375 C 48.667969 29.945312 48.613281 29.597656 48.933594 29.089844 C 49.28125 28.582031 49.28125 28.417969 48.90625 27.910156 C 48.691406 27.589844 48.265625 27.320312 48 27.320312 C 47.679688 27.320312 47.226562 26.867188 46.746094 26.007812 C 46.347656 25.285156 45.921875 24.75 45.8125 24.804688 C 45.679688 24.882812 45.921875 25.554688 46.292969 26.277344 C 47.414062 28.339844 47.226562 28.527344 42.320312 30.347656 C 40.054688 31.179688 38.105469 31.875 38 31.875 C 37.8125 31.875 38.71875 30.910156 43.464844 25.957031 C 44.292969 25.097656 44.988281 24.644531 45.601562 24.535156 C 46.800781 24.320312 53.171875 25.980469 53.28125 26.542969 C 53.332031 26.785156 52.800781 27.105469 51.8125 27.457031 C 50.988281 27.777344 50.265625 28.152344 50.1875 28.339844 C 50.132812 28.5 50.800781 28.367188 51.761719 27.992188 C 53.226562 27.402344 53.464844 27.375 53.945312 27.722656 C 55.625 28.902344 57.761719 27.214844 56.667969 25.554688 C 56.425781 25.207031 55.894531 24.832031 55.492188 24.75 C 54.667969 24.5625 54.667969 24.617188 53.039062 20.570312 C 51.8125 17.570312 51.8125 17.519531 51.601562 17.730469 C 51.519531 17.8125 52.054688 19.367188 52.800781 21.160156 C 53.519531 22.957031 54.132812 24.507812 54.132812 24.617188 C 54.132812 24.695312 53.945312 24.992188 53.761719 25.230469 C 53.441406 25.6875 53.199219 25.660156 49.839844 24.777344 C 45.199219 23.570312 45.199219 23.570312 42.535156 17.195312 C 41.386719 14.492188 40.535156 12.242188 40.585938 12.1875 C 40.640625 12.132812 42.535156 12.855469 44.800781 13.792969 C 48.746094 15.429688 48.933594 15.535156 49.253906 16.472656 C 49.574219 17.410156 49.546875 17.492188 47.945312 19.980469 C 47.066406 21.375 46.398438 22.605469 46.507812 22.6875 C 46.691406 22.902344 46.507812 23.144531 48.398438 20.144531 C 49.546875 18.320312 50.105469 17.679688 50.535156 17.679688 C 50.828125 17.679688 51.359375 17.492188 51.679688 17.25 C 52.160156 16.929688 52.265625 16.605469 52.214844 15.855469 C 52.105469 14.597656 51.066406 14.117188 49.921875 14.757812 C 49.226562 15.132812 49.011719 15.082031 45.199219 13.472656 C 42.933594 12.507812 41.039062 11.570312 40.828125 11.25 C 40.375 10.554688 39.464844 10.554688 39.28125 11.25 Z M 37.839844 15.695312 C 36.960938 17.570312 36.320312 19.152344 36.398438 19.230469 C 36.613281 19.445312 36.71875 19.285156 38.265625 15.910156 C 39.066406 14.167969 39.8125 12.695312 39.921875 12.667969 C 40.132812 12.589844 44.613281 23.0625 44.425781 23.222656 C 44.375 23.277344 42.585938 22.875 40.480469 22.339844 C 36.667969 21.375 36.613281 21.347656 36.292969 20.464844 C 35.945312 19.5 35.148438 19.097656 34.078125 19.367188 C 33.601562 19.5 33.09375 19.179688 31.8125 18 C 30.1875 16.527344 30.160156 16.445312 30.613281 15.9375 C 31.011719 15.457031 38.320312 12.375 39.121094 12.347656 C 39.308594 12.320312 38.71875 13.820312 37.839844 15.695312 Z M 51.199219 15.480469 C 51.199219 15.882812 51.253906 15.882812 51.464844 15.535156 C 51.679688 15.214844 51.734375 15.292969 51.734375 15.832031 C 51.734375 16.285156 51.519531 16.605469 51.121094 16.792969 C 50.320312 17.167969 49.734375 16.820312 49.945312 16.097656 C 50.027344 15.777344 49.972656 15.589844 49.839844 15.695312 C 49.707031 15.777344 49.601562 15.722656 49.601562 15.5625 C 49.601562 15.292969 49.945312 15.132812 50.691406 15.082031 C 51.011719 15.054688 51.199219 15.214844 51.199219 15.480469 Z M 33.066406 20.382812 C 33.066406 21.402344 32.585938 21.804688 29.546875 23.332031 C 27.785156 24.214844 26.425781 25.019531 26.507812 25.097656 C 26.585938 25.179688 28.078125 24.5625 29.8125 23.707031 C 32.933594 22.207031 32.988281 22.179688 33.785156 22.605469 L 34.613281 23.035156 L 34.800781 27.054688 C 34.90625 29.277344 35.121094 31.152344 35.253906 31.230469 C 35.519531 31.394531 35.332031 25.019531 35.039062 23.652344 C 34.960938 23.25 35.171875 22.902344 35.761719 22.445312 L 36.558594 21.804688 L 39.28125 22.527344 C 44.691406 23.945312 44.320312 23.785156 43.972656 24.429688 C 43.785156 24.75 42.054688 26.730469 40.078125 28.847656 C 37.011719 32.117188 36.398438 32.652344 35.867188 32.519531 C 35.519531 32.4375 34.988281 32.492188 34.691406 32.679688 C 34.1875 32.917969 33.8125 32.785156 32 31.6875 C 29.039062 29.894531 29.039062 29.679688 31.441406 26.25 C 32.453125 24.777344 33.199219 23.519531 33.09375 23.4375 C 32.960938 23.382812 32.027344 24.507812 31.039062 25.980469 C 30.027344 27.457031 29.039062 28.660156 28.828125 28.660156 C 28.640625 28.660156 28.054688 28.417969 27.574219 28.097656 C 26.851562 27.667969 26.667969 27.375 26.667969 26.707031 C 26.667969 26.25 26.480469 25.6875 26.265625 25.445312 C 25.921875 25.042969 26.027344 24.667969 27.359375 21.667969 C 28.1875 19.847656 29.011719 17.945312 29.226562 17.4375 L 29.625 16.5 L 31.332031 18.214844 C 32.292969 19.179688 33.066406 20.144531 33.066406 20.382812 Z M 35.386719 20.035156 C 35.546875 20.144531 35.761719 20.542969 35.867188 20.917969 C 36 21.480469 35.921875 21.722656 35.464844 22.042969 C 34.480469 22.742188 33.308594 21.964844 33.519531 20.8125 C 33.625 20.304688 33.785156 20.195312 34.480469 20.277344 C 35.28125 20.332031 35.28125 20.332031 34.667969 20.117188 C 34.105469 19.902344 34.078125 19.875 34.535156 19.847656 C 34.828125 19.847656 35.199219 19.929688 35.386719 20.035156 Z M 55.464844 25.445312 C 55.464844 25.582031 55.625 25.632812 55.8125 25.554688 C 56.078125 25.445312 56.160156 25.6875 56.160156 26.4375 C 56.132812 27.402344 56.105469 27.457031 55.226562 27.457031 C 54.078125 27.457031 53.625 26.839844 54.078125 25.875 C 54.375 25.207031 55.464844 24.855469 55.464844 25.445312 Z M 25.734375 25.714844 C 25.652344 25.847656 25.707031 25.980469 25.839844 25.980469 C 26 25.980469 26.132812 26.332031 26.132812 26.785156 C 26.132812 27.429688 26 27.617188 25.414062 27.75 C 24.988281 27.882812 24.667969 27.832031 24.585938 27.644531 C 24.535156 27.480469 24.347656 27.402344 24.160156 27.480469 C 23.625 27.695312 23.707031 26.195312 24.238281 25.792969 C 24.746094 25.394531 25.972656 25.339844 25.734375 25.714844 Z M 27.652344 29.652344 C 27.625 30.695312 28.105469 31.152344 29.011719 30.9375 C 29.464844 30.832031 30.238281 31.152344 31.734375 32.0625 C 33.464844 33.132812 33.867188 33.457031 33.867188 34.019531 C 33.867188 34.605469 33.601562 34.847656 32.132812 35.570312 C 31.171875 36.054688 30.320312 36.429688 30.265625 36.429688 C 30.1875 36.429688 30.132812 35.464844 30.132812 34.257812 C 30.132812 32.894531 30.027344 32.167969 29.867188 32.277344 C 29.734375 32.355469 29.601562 33.292969 29.601562 34.339844 C 29.601562 35.382812 29.519531 36.160156 29.441406 36.082031 C 29.039062 35.679688 25.972656 28.472656 26.078125 28.179688 C 26.160156 27.9375 26.375 27.964844 26.933594 28.285156 C 27.519531 28.660156 27.679688 28.929688 27.652344 29.652344 Z M 48.480469 28.605469 C 48.558594 29.089844 48.453125 29.195312 47.867188 29.195312 C 47.308594 29.195312 47.171875 29.089844 47.308594 28.769531 C 47.386719 28.527344 47.464844 28.230469 47.464844 28.070312 C 47.464844 27.535156 48.398438 28.019531 48.480469 28.605469 Z M 29.148438 29.730469 C 29.226562 30.027344 29.199219 30.269531 29.066406 30.269531 C 28.746094 30.269531 28.238281 29.570312 28.453125 29.382812 C 28.746094 29.0625 29.011719 29.195312 29.148438 29.730469 Z M 43.441406 34.957031 C 40.078125 40.6875 39.734375 41.035156 39.011719 39.644531 C 37.785156 37.339844 36.988281 35.117188 36.988281 34.019531 L 36.988281 32.839844 L 41.761719 31.042969 C 44.375 30.082031 46.558594 29.304688 46.613281 29.355469 C 46.667969 29.382812 45.253906 31.902344 43.441406 34.957031 Z M 49.011719 32.730469 C 49.8125 35.4375 49.839844 35.492188 49.332031 36.027344 C 49.066406 36.320312 48.800781 36.855469 48.746094 37.230469 C 48.667969 37.792969 48.1875 38.0625 44.800781 39.429688 C 42.667969 40.285156 40.90625 40.980469 40.878906 40.980469 C 40.558594 40.980469 41.253906 39.667969 44.027344 34.957031 C 46.773438 30.292969 47.332031 29.519531 47.707031 29.730469 C 47.972656 29.867188 48.507812 31.042969 49.011719 32.730469 Z M 36.453125 34.070312 C 36.535156 34.847656 36.425781 35.0625 35.945312 35.167969 C 35.148438 35.382812 34.480469 34.957031 34.507812 34.230469 C 34.558594 33.269531 34.90625 32.917969 35.679688 33.027344 C 36.292969 33.105469 36.398438 33.269531 36.453125 34.070312 Z M 35.921875 35.785156 C 36.667969 35.625 36.71875 35.679688 37.734375 38.089844 C 38.320312 39.457031 38.851562 40.660156 38.90625 40.792969 C 38.960938 40.929688 38.71875 40.957031 38.375 40.847656 C 37.359375 40.554688 30.667969 37.417969 30.507812 37.207031 C 30.425781 37.070312 31.199219 36.5625 32.1875 36.082031 C 33.839844 35.222656 34.027344 35.195312 34.585938 35.542969 C 34.960938 35.785156 35.464844 35.867188 35.921875 35.785156 Z M 51.199219 36.347656 C 51.199219 36.75 51.253906 36.777344 51.464844 36.429688 C 51.601562 36.214844 51.734375 36.082031 51.761719 36.160156 C 52.027344 37.820312 51.972656 38.0625 51.332031 38.355469 C 50 38.945312 48.746094 37.339844 49.761719 36.320312 C 50.320312 35.730469 51.199219 35.757812 51.199219 36.347656 Z M 40.398438 41.785156 C 40.398438 42.269531 40.238281 42.480469 39.785156 42.535156 C 39.441406 42.589844 39.121094 42.457031 39.039062 42.214844 C 38.773438 41.519531 39.148438 40.929688 39.785156 41.035156 C 40.238281 41.089844 40.398438 41.304688 40.398438 41.785156 Z M 40.398438 41.785156 "/>
</g>
</svg>
