<svg id="fairyde_navbar_logo" data-name="fairyde navbar_logo" xmlns="http://www.w3.org/2000/svg" xmlns:xlink="http://www.w3.org/1999/xlink" width="130" height="29.992" viewBox="0 0 130 29.992">
  <defs>
    <clipPath id="clip-path">
      <rect id="Rectangle_2" data-name="Rectangle 2" width="130" height="29.992" fill="none"/>
    </clipPath>
  </defs>
  <g id="Group_1" data-name="Group 1" clip-path="url(#clip-path)">
    <path id="Path_1" data-name="Path 1" d="M160.82,35.978a2.074,2.074,0,0,1,2.059-2.059h7.028a1.922,1.922,0,1,1,0,3.843h-4.969v3.844h4.969a1.922,1.922,0,1,1,0,3.843h-4.969v5.9a2.059,2.059,0,1,1-4.118,0Z" transform="translate(-131.047 -27.639)" fill="#fff"/>
    <path id="Path_2" data-name="Path 2" d="M219.124,33.259a2.059,2.059,0,0,1,3.706,1.235V50.142a2.059,2.059,0,1,1-4.118,0v-1.51h-2.526a1.922,1.922,0,1,1,0-3.843h2.526V39.765l-9.855,11.749a2.151,2.151,0,0,1-1.482.686,1.91,1.91,0,0,1-1.922-1.922,1.8,1.8,0,0,1,.439-1.235Z" transform="translate(-167.416 -26.43)" fill="#fff"/>
    <path id="Path_3" data-name="Path 3" d="M317.106,34.494a2.059,2.059,0,0,1,4.118,0V50.142a2.059,2.059,0,0,1-4.118,0Z" transform="translate(-258.398 -26.43)" fill="#fff"/>
    <path id="Path_4" data-name="Path 4" d="M357.141,35.978a2.074,2.074,0,0,1,2.059-2.059h4.886a6.039,6.039,0,0,1,6.314,6.039,5.129,5.129,0,0,1-3.02,4.914l-.137.055,4.283,5.106a2.068,2.068,0,0,1-1.565,3.376,2.042,2.042,0,0,1-1.592-.741l-5.93-7.055a2.428,2.428,0,0,1-.631-1.592,1.845,1.845,0,0,1,1.839-1.867h.3a2.2,2.2,0,0,0,0-4.392h-2.69V51.351a2.059,2.059,0,1,1-4.118,0Z" transform="translate(-291.022 -27.639)" fill="#fff"/>
    <path id="Path_5" data-name="Path 5" d="M440.807,43.086l-6.094-7.275a2.068,2.068,0,0,1,1.565-3.377,2.042,2.042,0,0,1,1.592.741l5.079,6.039,5.133-6.094a1.989,1.989,0,0,1,1.482-.686,1.91,1.91,0,0,1,1.922,1.922,1.8,1.8,0,0,1-.439,1.235l-6.122,7.3v7.247a2.059,2.059,0,0,1-4.118,0Z" transform="translate(-353.852 -26.43)" fill="#fff"/>
    <path id="Path_6" data-name="Path 6" d="M537.746,35.978a2.074,2.074,0,0,1,2.059-2.059h4.722c5.93,0,9.91,4.255,9.91,9.608s-3.981,9.608-9.91,9.608H539.8a2.074,2.074,0,0,1-2.059-2.059Zm6.781,13.314a5.445,5.445,0,0,0,5.655-5.765,5.445,5.445,0,0,0-5.655-5.765h-2.663v11.53Z" transform="translate(-438.19 -27.639)" fill="#fff"/>
    <path id="Path_7" data-name="Path 7" d="M642.728,35.978a2.074,2.074,0,0,1,2.059-2.059h7.028a1.922,1.922,0,1,1,0,3.843h-4.969v3.844h4.969a1.922,1.922,0,1,1,0,3.843h-4.969v3.843h4.969a1.922,1.922,0,0,1,0,3.843h-7.028a2.074,2.074,0,0,1-2.059-2.059Z" transform="translate(-523.736 -27.639)" fill="#fff"/>
    <path id="Path_8" data-name="Path 8" d="M0,6.093V3.746H0V1.937C0,1.92,0,1.9,0,1.888s0-.031,0-.047V1.7c0-.03,0-.062,0-.092V1.58c0-.033,0-.067,0-.1s0-.045,0-.068V1.372l.006-.034.009-.064A1.59,1.59,0,0,1,1.326.084,1.751,1.751,0,0,1,1.586.023H1.6A1.91,1.91,0,0,1,1.833,0H15.5a1.877,1.877,0,0,1,0,3.754H3.045A3.443,3.443,0,0,0,0,6.093M11.68,24.257h0a8.951,8.951,0,0,0-.119-16.531,8.643,8.643,0,0,0-1.542-.459,8.495,8.495,0,0,0-1.08-.148C8.721,7.1,8.5,7.1,8.282,7.1H3.746v0H1.607L1.6,7.1h.2a1.87,1.87,0,0,0-.338.044c-.029.007-.059.014-.088.023a1.641,1.641,0,0,0-.228.079c-.024.01-.049.021-.072.033-.039.019-.076.038-.113.059l-.1.058c-.03.02-.061.041-.09.064a.338.338,0,0,0-.042.034C.719,7.5.7,7.51.69,7.521c-.041.036-.083.071-.121.11l-.06.061-.025.027c-.011.011-.02.023-.029.035s0,0,0,0l-.013.017L.4,7.827v0L.388,7.84c-.023.03-.043.06-.064.091l-.035.056-.017.026c-.011.014-.017.029-.026.043a.033.033,0,0,0-.007.014c-.006.011-.012.023-.016.035A.212.212,0,0,0,.2,8.138a.351.351,0,0,0-.021.047.178.178,0,0,0-.011.023.1.1,0,0,0-.011.023.522.522,0,0,0-.018.049.385.385,0,0,0-.019.047.882.882,0,0,0-.029.088h0A.892.892,0,0,0,.069,8.5a.614.614,0,0,0-.017.082.005.005,0,0,0,0,0c0,.007,0,.015,0,.022a.012.012,0,0,1,0,.008.434.434,0,0,0-.007.046c0,.024-.008.045-.011.07-.006.041-.01.085-.011.127v.011a.2.2,0,0,0,0,.023v0a.548.548,0,0,0,0,.058c0,.023,0,.044,0,.067v.759c0,.029,0,.059,0,.086V29.992H3.746V17.727H9.6a1.435,1.435,0,0,0,1.435-1.435v-.884A1.435,1.435,0,0,0,9.6,13.972H3.746V10.826H9.238c.056,0,.116,0,.171-.008.027,0,.056-.006.086-.011h0a5.546,5.546,0,0,1-.76,10.973h0a1.522,1.522,0,0,0-.42-.082h-.08A1.565,1.565,0,0,0,6.67,23.263a1.545,1.545,0,0,0,.164.7v0a1.571,1.571,0,0,0,.493.651l-.033.009,5.331,5.37h4.748Z" fill="#fff"/>
  </g>
</svg>
